<svg width="26" height="26" viewBox="0 0 26 26" fill="none" xmlns="http://www.w3.org/2000/svg">
<path d="M20.3125 11.375C20.3125 17.0625 13 21.9375 13 21.9375C13 21.9375 5.6875 17.0625 5.6875 11.375C5.6875 9.4356 6.45792 7.57564 7.82928 6.20428C9.20064 4.83292 11.0606 4.0625 13 4.0625C14.9394 4.0625 16.7994 4.83292 18.1707 6.20428C19.5421 7.57564 20.3125 9.4356 20.3125 11.375Z" stroke="#212121" stroke-linecap="round" stroke-linejoin="round"/>
<path d="M13 13.8125C14.3462 13.8125 15.4375 12.7212 15.4375 11.375C15.4375 10.0288 14.3462 8.9375 13 8.9375C11.6538 8.9375 10.5625 10.0288 10.5625 11.375C10.5625 12.7212 11.6538 13.8125 13 13.8125Z" stroke="#212121" stroke-linecap="round" stroke-linejoin="round"/>
</svg>
